# xmcd
#
# Track frame offsets:
#	150
#	17785
#	33627
#	53595
#	64785
#	93732
#	110873
#	129836
#	146252
#	158506
#	177808
#
# Disc length: 2604 seconds
#
# Revision: 0
# Processed by: cddbd v1.5.1PL0 Copyright (c) Steve Scherf et al.
# Submitted via: dBpowerAMP V4.0
#
DISCID=8d0a2a0b
DTITLE=Rivers Edge - On The Edge
DYEAR=1900
DGENRE=Country
TTITLE0=On the Rivers Edge
TTITLE1=(Sure Got This Old Redneck) Feelin' Blue
TTITLE2=Cabin Fever
TTITLE3=Heartache
TTITLE4=Love You Till I Die
TTITLE5=Elusive Butterfly
TTITLE6=I Get the Picture
TTITLE7=Once A Fool
TTITLE8=Halfway Down The Highway
TTITLE9=33 East Central Boulevard
TTITLE10=Goodbye Heartache
EXTD=Submitted by Bear Williams
EXTT0=
EXTT1=
EXTT2=
EXTT3=
EXTT4=
EXTT5=
EXTT6=
EXTT7=
EXTT8=
EXTT9=
EXTT10=
PLAYORDER=
